<svg xmlns="http://www.w3.org/2000/svg" width="32" height="32" viewBox="0 0 256 100">
  <rect width="256" height="100" rx="12" fill="#1A365D"/>
  <path d="m254 50.05c-1.88-10-11.2-13.88-22.79-14.25-12.28-0.42-27.6 1.3-37.75 4.11-4.57 1.3-15.26 2.3-15.7-1.81-0.33-3.02 5.24-2.95 8.12-2.69 5.05 0.45 10.98 1.17 14.25-0.34 2.36-1.06 3.28-2.98 2.82-6.17-0.54-3.6-4.21-4.17-6.92-4.18-3.91-0.02-7.83 0.09-9.79-2.06-0.75-0.82-1.21-0.33-1.17 0.46 0.21 4.12 4.88 5.71 8.67 5.58 2.94-0.1-87.91-2.31 6.98-0.29 1.06 0.02 0.91 3.7-2.25 3.96-3.52 0.29-5.98-0.66-9.93-1.14-5.57-0.67-15.11-0.76-15.65 6.84-0.38 5.36 4.11 8.04 11.16 7.68 9.25-0.47 15.7-3.33 24.76-5.44 5.97-1.39 12.03-2.73 16.22-2.27 5.9 0.73 12.83 6.77 12.14 11.94-1.02 7.73-9.07 0.71-12.31-1.66-3.82-2.74-6.93-5.02-11.65-5.29-6.13-0.34-8.37 5.96-4.57 8.39 2.52 1.57 4.81 1.28 6.28-0.91 0.66-0.98-0.14-1.58-0.68-0.74-1.41 2.37-3.68 1.41-4.96-0.5-1.71-2.69 0.69-4.2 2.65-3.74 4.74 1.18 8.83 6.45 16.18 9.63 4.72 2.12 10.05 2.08 11.79-3.26 1.79-5.58-3.17-10.48-6.57-12.99 6.57 1.3 15.88 5.26 17.44 12.03 2.06 9.34-5.44 11.77-8.03 12.68-19.87-7.64-44.8-13.83-72.51-17.01-2.23-0.27-1.14-2.8-1.14-7.29 0-13.21-20.98-21.58-42.23-22v-0.01h-0.18-0.18v0.01c-21.25 0.42-42.23 8.79-42.23 21.24 0 4.23 1.26 7.65-0.74 7.89-25 2.93-48.1 8.61-69.63 16.77-3.67-1.81-10.02-3.55-9.56-10.85 0.4-6.3 6.61-11.45 16.59-13.8-5.12 3.57-7.92 8.4-7.08 12.21 1.35 6.28 7.08 6.51 12.39 3.85 6.2-3.06 9.79-7.88 14.76-8.88 2.33-0.47 4.83-0.56 5.4 1.29 0.74 2.51-1.75 4.88-4.17 3.88-1.34-0.58-2.19-1.6-3.3-0.86-0.55 0.38 1.15 1.35 2.1 1.77 2.92 1.28 6.17-0.9 6.72-3.7 0.76-3.68-3.76-5.67-7.45-4.67-5.57 1.55-8.17 5.47-14.67 8.05-5.4 2.25-7.88 0-7.88-3.33 0-4.34 5.76-9.52 10.64-10.06 3.78-0.41 11.08 0.79 15.41 1.59 9.04 1.78 12.6 4.55 22.9 5.85 6.5 0.81 13.28-0.13 14.05-5.95 0.84-6.52-6.96-8.44-13.67-7.57-3.95 0.52-4.78 1.44-11.01 0.61-3.42-0.44-3.29-4.63-0.96-4.63 2.8 0 3.89 1.09 7.67 0.71 3.79-0.37 6.02-2.22 6.27-5.67 0.06-0.99-0.92-1.3-1.74-0.42-2.08 2.37-7.13 2.37-11.84 2.37-3.02 0-5.38 1.1-5.19 5.1 0.25 5.41 3.85 6.13 11.78 6.41 4.57 0.16 13.08-1.17 13.86 1.94 1 3.96-6.99 3.82-12.17 2.66-10.71-2.5-22.44-5.21-38.14-5.32-11.28-0.09-22.56 3.45-24.55 12.89-2.23 9.07 1.05 13.92 8.27 16.57-5.4 3.35-5.51 9.11-3.9 12.47l6.1 15.19c2.6 5.89 9 7.05 14.21 5.5 28.7-10.51 61.57-17.28 99.99-17.5h1.7c32.6 0 67.5 6.26 101.7 17.8 5.85 1.79 11.91-0.86 14.14-5.8l7.01-15.72c1.55-4.12-0.81-9.49-5.19-11.79 6.81-2.37 10.48-6.71 8.94-15.35l0.01-0.01z" fill="#C9A84C"/>
  <path d="m116.1 15.7 21.4 0.22c0.84 0 0.7-1.91 0.7-1.91-4.99-0.85-14.48-1.28-21.73-0.14-0.69 0.11-0.75 1.83-0.37 1.83z" fill="#C9A84C"/>
  <path d="m109.2 9.63c2.33-0.22 4.75 0.82 5.95 1.5 1.07 0.61 5.3 1.15 7.3 0.61 1.55-0.46 2.62-4.65 3.76-4.65s1.74 3.97 3.29 4.42c1.34 0.42 5.4 0.81 6.95-0.14s2-2.25 3.55-2.32c1.11-0.06 4.35-0.26 5.98 0 0.66 0.11-1.16-1.14-2.5-1.21-1.69-0.09-3.12 0.2-3.41-0.82-0.29-1.01-0.76-1.01-0.97-0.35-0.64 2.05-1.09 2.34-3.45 2.26-1.89-0.07-3.44-1.78-4.18-1.41-1.07 0.54-2.35-0.51-2.35-1.99 0-0.63 0.58-0.92 0.58-2.11 0-2.18-1.69-2.61-2.75-2.68h-0.15c-1.06 0.07-2.34 0.7-2.25 2.68 0.06 1.29 0.8 1.41 0.8 2.18 0 1.14-1.41 2.61-2.39 2-1.21-0.74-2.19 1.18-4.42 1.26-2.35 0.08-2.64-0.22-3.38-2.33-0.23-0.66-0.77-0.52-0.99 0.22-0.37 1.27-0.91 1.27-3.07 0.98-1.86-0.29-2.15 0.08-2.29 0.22-0.64 0.56-0.56 1.12 0.39 1.68z" fill="#C9A84C"/>
</svg>
